{
	"patcher" : 	{
		"fileversion" : 1,
		"appversion" : 		{
			"major" : 8,
			"minor" : 6,
			"revision" : 0,
			"architecture" : "x64",
			"modernui" : 1
		}
,
		"classnamespace" : "box",
		"rect" : [ 34.0, 100.0, 991.0, 848.0 ],
		"bglocked" : 0,
		"openinpresentation" : 0,
		"default_fontsize" : 12.0,
		"default_fontface" : 0,
		"default_fontname" : "Arial",
		"gridonopen" : 1,
		"gridsize" : [ 15.0, 15.0 ],
		"gridsnaponopen" : 1,
		"objectsnaponopen" : 1,
		"statusbarvisible" : 2,
		"toolbarvisible" : 1,
		"lefttoolbarpinned" : 0,
		"toptoolbarpinned" : 0,
		"righttoolbarpinned" : 0,
		"bottomtoolbarpinned" : 0,
		"toolbars_unpinned_last_save" : 0,
		"tallnewobj" : 0,
		"boxanimatetime" : 200,
		"enablehscroll" : 1,
		"enablevscroll" : 1,
		"devicewidth" : 0.0,
		"description" : "",
		"digest" : "",
		"tags" : "",
		"style" : "",
		"subpatcher_template" : "",
		"assistshowspatchername" : 0,
		"boxes" : [ 			{
				"box" : 				{
					"id" : "obj-164",
					"maxclass" : "message",
					"numinlets" : 2,
					"numoutlets" : 1,
					"outlettype" : [ "" ],
					"patching_rect" : [ 150.0, 555.0, 50.0, 22.0 ],
					"text" : "refer $1"
				}

			}
, 			{
				"box" : 				{
					"format" : 6,
					"id" : "obj-161",
					"maxclass" : "flonum",
					"minimum" : 0.0,
					"numinlets" : 1,
					"numoutlets" : 2,
					"outlettype" : [ "", "bang" ],
					"parameter_enable" : 0,
					"patching_rect" : [ 855.0, 75.0, 50.0, 22.0 ]
				}

			}
, 			{
				"box" : 				{
					"id" : "obj-155",
					"maxclass" : "textbutton",
					"mode" : 1,
					"numinlets" : 1,
					"numoutlets" : 3,
					"outlettype" : [ "", "", "int" ],
					"parameter_enable" : 0,
					"patching_rect" : [ 150.0, 530.0, 100.0, 20.0 ],
					"text" : "left_hand",
					"texton" : "right_hand"
				}

			}
, 			{
				"box" : 				{
					"id" : "obj-150",
					"maxclass" : "comment",
					"numinlets" : 1,
					"numoutlets" : 0,
					"patching_rect" : [ 726.0, 17.0, 156.0, 20.0 ],
					"text" : "<-- playback video and data"
				}

			}
, 			{
				"box" : 				{
					"id" : "obj-9",
					"maxclass" : "newobj",
					"numinlets" : 3,
					"numoutlets" : 7,
					"outlettype" : [ "", "", "", "", "", "", "float" ],
					"patching_rect" : [ 337.0, 75.0, 120.0, 22.0 ],
					"text" : "rec_n_play left_hand"
				}

			}
, 			{
				"box" : 				{
					"id" : "obj-2",
					"maxclass" : "newobj",
					"numinlets" : 3,
					"numoutlets" : 7,
					"outlettype" : [ "", "", "", "", "", "", "float" ],
					"patching_rect" : [ 106.0, 75.0, 127.0, 22.0 ],
					"text" : "rec_n_play right_hand"
				}

			}
, 			{
				"box" : 				{
					"id" : "obj-23",
					"maxclass" : "message",
					"numinlets" : 2,
					"numoutlets" : 1,
					"outlettype" : [ "" ],
					"patching_rect" : [ 420.0, 555.0, 46.0, 22.0 ],
					"text" : "writeall"
				}

			}
, 			{
				"box" : 				{
					"id" : "obj-25",
					"maxclass" : "newobj",
					"numinlets" : 1,
					"numoutlets" : 7,
					"outlettype" : [ "", "", "", "", "", "", "" ],
					"patching_rect" : [ 240.0, 75.0, 95.0, 22.0 ],
					"text" : "hand right_hand"
				}

			}
, 			{
				"box" : 				{
					"id" : "obj-79",
					"maxclass" : "newobj",
					"numinlets" : 1,
					"numoutlets" : 7,
					"outlettype" : [ "", "", "", "", "", "", "" ],
					"patching_rect" : [ 16.0, 75.0, 88.0, 22.0 ],
					"text" : "hand left_hand"
				}

			}
, 			{
				"box" : 				{
					"id" : "obj-1",
					"maxclass" : "newobj",
					"numinlets" : 1,
					"numoutlets" : 2,
					"outlettype" : [ "", "" ],
					"patching_rect" : [ 387.5, 45.0, 107.0, 22.0 ],
					"text" : "OSC-route /record"
				}

			}
, 			{
				"box" : 				{
					"id" : "obj-8",
					"maxclass" : "newobj",
					"numinlets" : 1,
					"numoutlets" : 1,
					"outlettype" : [ "" ],
					"patching_rect" : [ 16.0, 15.0, 97.0, 22.0 ],
					"text" : "udpreceive 9100"
				}

			}
, 			{
				"box" : 				{
					"id" : "obj-11",
					"maxclass" : "message",
					"numinlets" : 2,
					"numoutlets" : 1,
					"outlettype" : [ "" ],
					"patching_rect" : [ 15.0, 555.0, 49.0, 22.0 ],
					"text" : "read $1"
				}

			}
, 			{
				"box" : 				{
					"id" : "obj-12",
					"maxclass" : "comment",
					"numinlets" : 1,
					"numoutlets" : 0,
					"patching_rect" : [ 14.0, 515.0, 85.0, 20.0 ],
					"style" : "helpfile_label",
					"text" : "drop mubu file"
				}

			}
, 			{
				"box" : 				{
					"border" : 1.0,
					"id" : "obj-13",
					"maxclass" : "dropfile",
					"numinlets" : 1,
					"numoutlets" : 2,
					"outlettype" : [ "", "" ],
					"patching_rect" : [ 15.0, 510.0, 83.0, 29.0 ],
					"rounded" : 1.0
				}

			}
, 			{
				"box" : 				{
					"id" : "obj-3",
					"maxclass" : "message",
					"numinlets" : 2,
					"numoutlets" : 1,
					"outlettype" : [ "" ],
					"patching_rect" : [ 480.0, 555.0, 47.0, 22.0 ],
					"text" : "clearall"
				}

			}
, 			{
				"box" : 				{
					"id" : "obj-48",
					"maxclass" : "comment",
					"numinlets" : 1,
					"numoutlets" : 0,
					"patching_rect" : [ 735.0, 178.0, 209.0, 20.0 ],
					"text" : "needed for [jit.movie] to work properly"
				}

			}
, 			{
				"box" : 				{
					"id" : "obj-42",
					"maxclass" : "playbar",
					"numinlets" : 1,
					"numoutlets" : 2,
					"outlettype" : [ "", "int" ],
					"patching_rect" : [ 705.0, 165.0, 268.0, 16.0 ]
				}

			}
, 			{
				"box" : 				{
					"id" : "obj-38",
					"maxclass" : "newobj",
					"numinlets" : 1,
					"numoutlets" : 2,
					"outlettype" : [ "int", "int" ],
					"patching_rect" : [ 705.0, 45.0, 29.5, 22.0 ],
					"text" : "t i i"
				}

			}
, 			{
				"box" : 				{
					"id" : "obj-37",
					"maxclass" : "message",
					"numinlets" : 2,
					"numoutlets" : 1,
					"outlettype" : [ "" ],
					"patching_rect" : [ 750.0, 105.0, 89.0, 22.0 ],
					"text" : "stop, position 0"
				}

			}
, 			{
				"box" : 				{
					"id" : "obj-36",
					"maxclass" : "message",
					"numinlets" : 2,
					"numoutlets" : 1,
					"outlettype" : [ "" ],
					"patching_rect" : [ 716.0, 105.0, 32.0, 22.0 ],
					"text" : "start"
				}

			}
, 			{
				"box" : 				{
					"id" : "obj-35",
					"maxclass" : "newobj",
					"numinlets" : 2,
					"numoutlets" : 2,
					"outlettype" : [ "bang", "" ],
					"patching_rect" : [ 716.0, 75.0, 53.0, 22.0 ],
					"text" : "sel 1"
				}

			}
, 			{
				"box" : 				{
					"id" : "obj-34",
					"maxclass" : "toggle",
					"numinlets" : 1,
					"numoutlets" : 1,
					"outlettype" : [ "int" ],
					"parameter_enable" : 0,
					"patching_rect" : [ 705.0, 15.0, 24.0, 24.0 ]
				}

			}
, 			{
				"box" : 				{
					"id" : "obj-10",
					"maxclass" : "message",
					"numinlets" : 2,
					"numoutlets" : 1,
					"outlettype" : [ "" ],
					"patching_rect" : [ 615.0, 105.0, 49.0, 22.0 ],
					"text" : "read $1"
				}

			}
, 			{
				"box" : 				{
					"id" : "obj-7",
					"maxclass" : "comment",
					"numinlets" : 1,
					"numoutlets" : 0,
					"patching_rect" : [ 615.0, 21.0, 83.0, 20.0 ],
					"style" : "helpfile_label",
					"text" : "drop video file"
				}

			}
, 			{
				"box" : 				{
					"border" : 1.0,
					"id" : "obj-6",
					"maxclass" : "dropfile",
					"numinlets" : 1,
					"numoutlets" : 2,
					"outlettype" : [ "", "" ],
					"patching_rect" : [ 615.0, 16.0, 83.0, 29.0 ],
					"rounded" : 1.0
				}

			}
, 			{
				"box" : 				{
					"id" : "obj-5",
					"maxclass" : "jit.pwindow",
					"numinlets" : 1,
					"numoutlets" : 2,
					"outlettype" : [ "jit_matrix", "" ],
					"patching_rect" : [ 615.0, 165.0, 80.0, 60.0 ],
					"sync" : 1
				}

			}
, 			{
				"box" : 				{
					"id" : "obj-4",
					"maxclass" : "newobj",
					"numinlets" : 1,
					"numoutlets" : 2,
					"outlettype" : [ "jit_matrix", "" ],
					"patching_rect" : [ 615.0, 135.0, 316.0, 22.0 ],
					"text" : "jit.movie 320 240 @autostart 0 @adapt 1 @loop 0 @vol 0"
				}

			}
, 			{
				"box" : 				{
					"id" : "obj-45",
					"maxclass" : "message",
					"numinlets" : 2,
					"numoutlets" : 1,
					"outlettype" : [ "" ],
					"patching_rect" : [ 75.0, 555.0, 59.0, 22.0 ],
					"text" : "cursor $1"
				}

			}
, 			{
				"box" : 				{
					"alignviewbounds" : 0,
					"autobounds" : 0,
					"autorefreshrate" : 0,
					"autoupdate" : 120.0,
					"bgcolor" : [ 1.0, 1.0, 1.0, 1.0 ],
					"bufferchooser_bgcolor" : [ 1.0, 1.0, 1.0, 1.0 ],
					"bufferchooser_fgcolor" : [ 0.0, 0.0, 0.0, 1.0 ],
					"bufferchooser_position" : 1,
					"bufferchooser_shape" : "buttons",
					"bufferchooser_size" : 15,
					"bufferchooser_visible" : 1,
					"continousediting" : 0,
					"cursor_circleedgecolor" : [ 1.0, 0.0, 0.0, 1.0 ],
					"cursor_circlefillcolor" : [ 1.0, 0.0, 0.0, 1.0 ],
					"cursor_circlefilled" : 1,
					"cursor_circleheight" : 3.0,
					"cursor_circlewidth" : 3.0,
					"cursor_color" : [ 1.0, 0.0, 0.0, 1.0 ],
					"cursor_followmouse" : 0,
					"cursor_nearest" : 0,
					"cursor_nearestcolor" : [ 1.0, 0.0, 0.0, 1.0 ],
					"cursor_noringoffset" : 0,
					"cursor_position" : 4632.842083998024464,
					"cursor_shape" : "bar",
					"cursor_size" : 3,
					"cursor_sizeunit" : 0,
					"cursor_visible" : 1,
					"domain_bounds" : [ 0.0, 1.0 ],
					"domainruler_bgcolor" : [ 1.0, 1.0, 1.0, 1.0 ],
					"domainruler_fgcolor" : [ 0.0, 0.0, 0.0, 1.0 ],
					"domainruler_grid" : 0,
					"domainruler_position" : 0,
					"domainruler_size" : 15,
					"domainruler_unit" : 3,
					"domainruler_visible" : 1,
					"domainscrollbar_color" : [ 1.0, 1.0, 1.0, 1.0 ],
					"domainscrollbar_size" : 10,
					"domainscrollbar_visible" : 1,
					"embed" : 0,
					"externalfiles" : 1,
					"freeze" : 0,
					"id" : "obj-21",
					"layout" : 0,
					"maintrack" : -1,
					"maxclass" : "imubu",
					"mousewheelscroll" : 0,
					"name" : "right_hand",
					"numinlets" : 1,
					"numoutlets" : 1,
					"opacity" : 0.0,
					"opacityprogressive" : 0,
					"orientation" : 0,
					"outlettype" : [ "" ],
					"outputkeys" : 0,
					"outputmouse" : 0,
					"outputselection" : 0,
					"outputtimeselection" : 0,
					"outputvalues" : 0,
					"outputviewname" : 0,
					"parameter_enable" : 0,
					"patching_rect" : [ 15.0, 585.0, 512.0, 256.0 ],
					"rangeruler_grid" : 0,
					"rangeruler_size" : 30,
					"rangeruler_visible" : 1,
					"region_bounds" : [ 0.0, 0.0 ],
					"region_color" : [ 0.800000011920929, 0.699999988079071, 0.699999988079071, 1.0 ],
					"region_visible" : 1,
					"resamplefiles" : 0,
					"snaprate" : 1000.0,
					"split_color" : [ 0.0, 0.0, 0.0, 1.0 ],
					"split_size" : 2,
					"split_visible" : 1,
					"tabs_position" : 0,
					"tabs_size" : 20,
					"tabs_visible" : 1,
					"tool" : "edit",
					"toolbar_bgcolor" : [ 1.0, 1.0, 1.0, 1.0 ],
					"toolbar_position" : 1,
					"toolbar_size" : 30,
					"toolbar_visible" : 1,
					"useplaceholders" : 1,
					"verbose" : 1,
					"windresize" : 0
				}

			}
, 			{
				"box" : 				{
					"id" : "obj-148",
					"maxclass" : "message",
					"numinlets" : 2,
					"numoutlets" : 1,
					"outlettype" : [ "" ],
					"patching_rect" : [ 855.0, 105.0, 46.0, 22.0 ],
					"text" : "rate $1"
				}

			}
 ],
		"lines" : [ 			{
				"patchline" : 				{
					"color" : [ 0.0, 1.0, 0.0, 0.302876655629139 ],
					"destination" : [ "obj-2", 1 ],
					"midpoints" : [ 397.0, 70.5, 169.5, 70.5 ],
					"order" : 1,
					"source" : [ "obj-1", 0 ]
				}

			}
, 			{
				"patchline" : 				{
					"color" : [ 0.0, 1.0, 0.0, 0.302876655629139 ],
					"destination" : [ "obj-9", 1 ],
					"order" : 0,
					"source" : [ "obj-1", 0 ]
				}

			}
, 			{
				"patchline" : 				{
					"destination" : [ "obj-4", 0 ],
					"source" : [ "obj-10", 0 ]
				}

			}
, 			{
				"patchline" : 				{
					"destination" : [ "obj-21", 0 ],
					"source" : [ "obj-11", 0 ]
				}

			}
, 			{
				"patchline" : 				{
					"destination" : [ "obj-11", 0 ],
					"source" : [ "obj-13", 0 ]
				}

			}
, 			{
				"patchline" : 				{
					"destination" : [ "obj-4", 0 ],
					"midpoints" : [ 864.5, 130.5, 624.5, 130.5 ],
					"source" : [ "obj-148", 0 ]
				}

			}
, 			{
				"patchline" : 				{
					"destination" : [ "obj-164", 0 ],
					"midpoints" : [ 200.0, 552.0, 159.5, 552.0 ],
					"source" : [ "obj-155", 1 ]
				}

			}
, 			{
				"patchline" : 				{
					"destination" : [ "obj-148", 0 ],
					"source" : [ "obj-161", 0 ]
				}

			}
, 			{
				"patchline" : 				{
					"destination" : [ "obj-21", 0 ],
					"midpoints" : [ 159.5, 580.5, 24.5, 580.5 ],
					"source" : [ "obj-164", 0 ]
				}

			}
, 			{
				"patchline" : 				{
					"destination" : [ "obj-21", 0 ],
					"midpoints" : [ 429.5, 580.5, 24.5, 580.5 ],
					"source" : [ "obj-23", 0 ]
				}

			}
, 			{
				"patchline" : 				{
					"destination" : [ "obj-9", 0 ],
					"source" : [ "obj-25", 6 ]
				}

			}
, 			{
				"patchline" : 				{
					"destination" : [ "obj-21", 0 ],
					"midpoints" : [ 489.5, 580.5, 24.5, 580.5 ],
					"source" : [ "obj-3", 0 ]
				}

			}
, 			{
				"patchline" : 				{
					"destination" : [ "obj-38", 0 ],
					"source" : [ "obj-34", 0 ]
				}

			}
, 			{
				"patchline" : 				{
					"destination" : [ "obj-36", 0 ],
					"source" : [ "obj-35", 0 ]
				}

			}
, 			{
				"patchline" : 				{
					"destination" : [ "obj-37", 0 ],
					"source" : [ "obj-35", 1 ]
				}

			}
, 			{
				"patchline" : 				{
					"destination" : [ "obj-4", 0 ],
					"midpoints" : [ 725.5, 130.5, 624.5, 130.5 ],
					"source" : [ "obj-36", 0 ]
				}

			}
, 			{
				"patchline" : 				{
					"destination" : [ "obj-4", 0 ],
					"midpoints" : [ 759.5, 130.5, 624.5, 130.5 ],
					"source" : [ "obj-37", 0 ]
				}

			}
, 			{
				"patchline" : 				{
					"color" : [ 1.0, 1.0, 0.0, 0.248447847682119 ],
					"destination" : [ "obj-2", 2 ],
					"midpoints" : [ 714.5, 70.5, 223.5, 70.5 ],
					"order" : 1,
					"source" : [ "obj-38", 0 ]
				}

			}
, 			{
				"patchline" : 				{
					"destination" : [ "obj-35", 0 ],
					"source" : [ "obj-38", 1 ]
				}

			}
, 			{
				"patchline" : 				{
					"color" : [ 1.0, 1.0, 0.0, 0.248447847682119 ],
					"destination" : [ "obj-9", 2 ],
					"midpoints" : [ 714.5, 70.5, 447.5, 70.5 ],
					"order" : 0,
					"source" : [ "obj-38", 0 ]
				}

			}
, 			{
				"patchline" : 				{
					"destination" : [ "obj-5", 0 ],
					"source" : [ "obj-4", 0 ]
				}

			}
, 			{
				"patchline" : 				{
					"destination" : [ "obj-4", 0 ],
					"source" : [ "obj-42", 0 ]
				}

			}
, 			{
				"patchline" : 				{
					"destination" : [ "obj-21", 0 ],
					"midpoints" : [ 84.5, 580.5, 24.5, 580.5 ],
					"source" : [ "obj-45", 0 ]
				}

			}
, 			{
				"patchline" : 				{
					"destination" : [ "obj-10", 0 ],
					"source" : [ "obj-6", 0 ]
				}

			}
, 			{
				"patchline" : 				{
					"destination" : [ "obj-2", 0 ],
					"source" : [ "obj-79", 6 ]
				}

			}
, 			{
				"patchline" : 				{
					"destination" : [ "obj-1", 0 ],
					"midpoints" : [ 25.5, 40.5, 397.0, 40.5 ],
					"order" : 0,
					"source" : [ "obj-8", 0 ]
				}

			}
, 			{
				"patchline" : 				{
					"destination" : [ "obj-25", 0 ],
					"order" : 1,
					"source" : [ "obj-8", 0 ]
				}

			}
, 			{
				"patchline" : 				{
					"destination" : [ "obj-79", 0 ],
					"order" : 2,
					"source" : [ "obj-8", 0 ]
				}

			}
, 			{
				"patchline" : 				{
					"destination" : [ "obj-45", 0 ],
					"source" : [ "obj-9", 6 ]
				}

			}
 ],
		"dependency_cache" : [ 			{
				"name" : "OSC-route.mxo",
				"type" : "iLaX"
			}
, 			{
				"name" : "bach.iter.mxo",
				"type" : "iLaX"
			}
, 			{
				"name" : "hand.maxpat",
				"bootpath" : "~/Documents/Projets/computer-music/max_tools",
				"patcherrelativepath" : ".",
				"type" : "JSON",
				"implicit" : 1
			}
, 			{
				"name" : "imubu.mxo",
				"type" : "iLaX"
			}
, 			{
				"name" : "mubu.mxo",
				"type" : "iLaX"
			}
, 			{
				"name" : "mubu.play.mxo",
				"type" : "iLaX"
			}
, 			{
				"name" : "mubu.record.mxo",
				"type" : "iLaX"
			}
, 			{
				"name" : "mubu.track.mxo",
				"type" : "iLaX"
			}
, 			{
				"name" : "rec_n_play.maxpat",
				"bootpath" : "~/Documents/Projets/computer-music/max_tools",
				"patcherrelativepath" : ".",
				"type" : "JSON",
				"implicit" : 1
			}
 ],
		"autosave" : 0
	}

}
